<?xml version="1.0" encoding="iso-8859-1"?>
<!-- Generator: Adobe Illustrator 19.0.0, SVG Export Plug-In . SVG Version: 6.00 Build 0)  -->
<svg version="1.1" id="Capa_1" xmlns="http://www.w3.org/2000/svg" xmlns:xlink="http://www.w3.org/1999/xlink" x="0px" y="0px"
	 viewBox="0 0 512.001 512.001" style="enable-background:new 0 0 512.001 512.001;" xml:space="preserve">
<path style="fill:#AA785F;" d="M8.004,231.816c0,0,9,53.5,31,87.999l365.663-1.333C502,281.816,504,191.816,504,191.816
	C328.001,263.816,8.004,231.816,8.004,231.816z"/>
<g>
	<path style="fill:#96695A;" d="M15.749,264.52c5.01,17.407,12.576,38.55,23.254,55.295l365.663-1.333
		c57.878-21.803,81.992-62.418,92.076-91.8C335.86,288.594,64.79,268.75,15.749,264.52z"/>
	<path style="fill:#96695A;" d="M78.327,236.615c-28.144-1.355-49.573-2.991-61.014-3.96c-4.749-0.402-8.46,3.877-7.457,8.537
		c3.634,16.875,12.804,52.993,29.148,78.624l119.578-0.436C119.935,295.629,93.957,262.212,78.327,236.615z"/>
</g>
<g>
	<path style="fill:#825A50;" d="M101.896,269.598c-41.223-1.496-72.422-3.895-86.147-5.078c5.01,17.407,12.576,38.55,23.254,55.295
		l119.578-0.436C135.225,305.026,116.499,287.165,101.896,269.598z"/>
	<path style="fill:#825A50;" d="M203.939,273.215c-6.14-4.585-15.014-2.594-19.468,3.642l-15.579,21.81
		c-1.646,2.305-1.1,5.51,1.217,7.139l8.19,5.758c1.889,1.328,4.435,1.222,6.206-0.259l19.29-16.126
		C211.161,289.918,211.517,278.873,203.939,273.215z"/>
</g>
<path style="fill:#7FE1FF;" d="M463.996,335.755c-0.487,0.012-0.853,0.061-1.383,0.061c-7.359,0-10.375-1.164-14.93-2.922
	c-5.844-2.262-13.125-5.078-26.461-5.078c-13.328,0-20.609,2.816-26.453,5.078c-4.547,1.758-7.555,2.922-14.898,2.922
	c-7.344,0-10.344-1.16-14.891-2.922c-5.844-2.262-13.117-5.078-26.437-5.078s-20.601,2.816-26.445,5.078
	c-4.547,1.758-7.547,2.922-14.898,2.922c-7.344,0-10.344-1.16-14.891-2.922c-5.844-2.262-13.117-5.078-26.437-5.078
	c-13.328,0-20.601,2.816-26.445,5.078c-4.547,1.762-7.547,2.922-14.891,2.922s-10.344-1.16-14.891-2.922
	c-5.844-2.262-13.117-5.078-26.437-5.078s-20.594,2.816-26.445,5.082c-4.539,1.758-7.539,2.918-14.875,2.918
	c-7.328,0-10.32-1.16-14.859-2.918c-5.844-2.266-13.109-5.082-26.43-5.082s-20.594,2.816-26.445,5.082
	c-4.539,1.758-7.539,2.918-14.875,2.918c-0.492,0-0.827-0.046-1.281-0.056v8.124c0,14.215,14.273,24.054,27.529,18.924
	c0.061-0.023,0.121-0.047,0.181-0.07c4.547-1.762,7.547-2.922,14.891-2.922c7.336,0,10.328,1.16,14.867,2.918
	c5.844,2.266,13.109,5.082,26.422,5.082c13.32,0,20.586-2.816,26.43-5.078c4.547-1.762,7.547-2.922,14.891-2.922
	s10.344,1.16,14.891,2.922c5.844,2.262,13.117,5.078,26.437,5.078s20.594-2.816,26.437-5.078c4.547-1.758,7.547-2.922,14.898-2.922
	c7.344,0,10.344,1.16,14.891,2.922c5.844,2.262,13.117,5.078,26.437,5.078s20.601-2.816,26.445-5.078
	c4.547-1.758,7.547-2.922,14.898-2.922c7.344,0,10.344,1.16,14.891,2.922c5.844,2.262,13.117,5.078,26.437,5.078
	s20.601-2.816,26.445-5.078c4.547-1.758,7.555-2.922,14.906-2.922c7.359,0,10.375,1.164,14.93,2.922
	c0.104,0.04,0.208,0.081,0.313,0.121c13.257,5.127,27.531-4.711,27.531-18.924L463.996,335.755z"/>
<path style="fill:#00C3FF;" d="M462.613,343.815c-13.336,0-20.617-2.816-26.461-5.078c-4.555-1.758-7.57-2.922-14.93-2.922
	c-7.352,0-10.359,1.164-14.906,2.922c-5.844,2.262-13.125,5.078-26.445,5.078s-20.594-2.816-26.437-5.078
	c-4.547-1.762-7.547-2.922-14.891-2.922c-7.352,0-10.352,1.164-14.898,2.922c-5.844,2.262-13.125,5.078-26.445,5.078
	s-20.594-2.816-26.437-5.078c-4.547-1.762-7.547-2.922-14.891-2.922c-7.352,0-10.351,1.164-14.898,2.922
	c-5.844,2.262-13.117,5.078-26.437,5.078s-20.594-2.816-26.437-5.078c-4.547-1.762-7.547-2.922-14.891-2.922
	s-10.344,1.16-14.891,2.922c-5.844,2.262-13.109,5.078-26.43,5.078c-13.312,0-20.578-2.816-26.422-5.082
	c-4.539-1.758-7.531-2.918-14.867-2.918c-7.344,0-10.344,1.16-14.891,2.922c-5.844,2.262-13.109,5.078-26.43,5.078
	c-13.312,0-20.586-2.816-26.422-5.082c-3.172-1.227-5.453-2.113-8.953-2.574c-8.763-1.156-14.92-9.199-13.763-17.957
	c1.156-8.766,9.258-14.922,17.953-13.769c7.305,0.965,12.305,2.906,16.328,4.465c4.531,1.758,7.531,2.918,14.859,2.918
	c7.336,0,10.336-1.16,14.875-2.918c5.852-2.266,13.125-5.082,26.445-5.082s20.586,2.816,26.43,5.082
	c4.539,1.758,7.531,2.918,14.859,2.918c7.336,0,10.336-1.16,14.875-2.918c5.852-2.266,13.125-5.082,26.445-5.082
	s20.594,2.816,26.437,5.078c4.547,1.762,7.547,2.922,14.891,2.922s10.344-1.16,14.891-2.922c5.844-2.262,13.117-5.078,26.445-5.078
	c13.32,0,20.594,2.816,26.437,5.078c4.547,1.762,7.547,2.922,14.891,2.922c7.352,0,10.352-1.164,14.898-2.922
	c5.844-2.262,13.125-5.078,26.445-5.078s20.594,2.816,26.437,5.078c4.547,1.762,7.547,2.922,14.891,2.922s10.352-1.164,14.898-2.922
	c5.844-2.262,13.125-5.078,26.453-5.078c13.336,0,20.617,2.816,26.461,5.078c4.555,1.758,7.57,2.922,14.93,2.922
	c7.359,0,10.367-1.164,14.922-2.922c4.031-1.562,9.055-3.504,16.383-4.461c8.656-1.164,16.797,5.02,17.945,13.785
	c1.148,8.762-5.023,16.793-13.789,17.941c-3.523,0.461-5.82,1.352-9,2.582C483.222,341.003,475.941,343.815,462.613,343.815z"/>
<path d="M504.5,296.366c-11.767,0-17.968,2.397-23.439,4.513c-4.862,1.88-9.062,3.503-18.03,3.503
	c-8.074,0-12.284-1.317-16.591-2.951c30.866-17.984,46.82-43.273,54.963-62.817C511.88,213.469,512,192.52,512,191.64
	c0-2.499-1.245-4.834-3.32-6.227c-2.075-1.392-4.708-1.661-7.02-0.714c-57.914,23.692-140.025,38.758-240.062,44.264l71.975-71.975
	c2.929-2.929,2.929-7.678,0-10.606c-2.929-2.929-7.678-2.929-10.606,0l-83.636,83.635c-16.041,0.641-32.503,1.05-49.374,1.217
	c-100.656,0.995-180.913-6.896-181.711-6.976c-2.28-0.226-4.536,0.598-6.13,2.242s-2.35,3.926-2.052,6.196
	c0.211,1.607,4.634,34.369,18.018,64.456c-2.978-0.482-6.427-0.786-10.581-0.786c-4.142,0-7.5,3.358-7.5,7.5s3.358,7.5,7.5,7.5
	c8.938,0,13.124,1.623,17.971,3.501c5.46,2.117,11.648,4.515,23.392,4.515c11.752,0,17.945-2.398,23.41-4.514
	c4.853-1.879,9.043-3.502,17.993-3.502c8.942,0,13.13,1.623,17.979,3.501c5.461,2.116,11.651,4.515,23.398,4.515
	c11.751,0,17.944-2.398,23.408-4.514c4.852-1.879,9.042-3.502,17.99-3.502c8.953,0,13.146,1.623,18,3.502
	c5.466,2.116,11.661,4.514,23.416,4.514s17.95-2.398,23.415-4.514c4.854-1.879,9.047-3.502,18-3.502s13.146,1.623,18.001,3.502
	c5.466,2.116,11.661,4.514,23.416,4.514c11.757,0,17.954-2.398,23.42-4.514c4.856-1.879,9.05-3.502,18.007-3.502
	c8.95,0,13.141,1.623,17.994,3.502c5.464,2.116,11.658,4.514,23.411,4.514c11.76,0,17.958-2.398,23.426-4.513
	c4.858-1.879,9.054-3.503,18.014-3.503c8.968,0,13.168,1.624,18.03,3.503c5.471,2.115,11.672,4.513,23.439,4.513
	s17.968-2.397,23.439-4.513c4.862-1.88,9.062-3.503,18.03-3.503c4.142,0,7.5-3.358,7.5-7.5S508.642,296.366,504.5,296.366z
	 M149.634,300.88c-4.852,1.879-9.042,3.502-17.991,3.502c-8.942,0-13.13-1.623-17.979-3.501c-5.462-2.116-11.652-4.515-23.399-4.515
	c-11.752,0-17.945,2.398-23.41,4.514c-4.853,1.879-9.043,3.502-17.993,3.502c-4.708,0-8.092-0.453-10.954-1.153
	c-5.443-9.546-9.734-20.24-13.058-30.428c23.965,1.867,70.314,4.866,126.86,5.475c0.027,0,0.055,0,0.082,0
	c4.104,0,7.454-3.305,7.498-7.419c0.044-4.142-3.277-7.536-7.419-7.58c-60.957-0.656-109.951-4.109-131.494-5.881
	c-1.734-6.749-3.001-12.752-3.873-17.342c24.49,2.055,92.427,6.979,173.435,6.18c11.491-0.113,22.761-0.335,33.828-0.655
	l-19.348,19.348c-3.21-1.44-6.764-2.074-10.365-1.776c-6.188,0.512-11.807,3.704-15.416,8.756l-18.305,25.627
	C155.977,298.425,152.69,299.697,149.634,300.88z M201.856,284.662c-0.087,1.049-0.531,3.021-2.526,4.447l-12.212,8.723
	c-2.235-0.522-4.763-0.945-7.704-1.2l11.433-16.006c1.425-1.996,3.398-2.439,4.447-2.526c1.047-0.086,3.067,0.026,4.802,1.76
	C201.829,281.594,201.942,283.613,201.856,284.662z M398.135,300.879c-4.858,1.88-9.054,3.503-18.014,3.503
	c-8.95,0-13.141-1.623-17.995-3.502c-5.464-2.116-11.658-4.514-23.41-4.514c-11.758,0-17.954,2.398-23.421,4.514
	c-4.856,1.879-9.05,3.502-18.006,3.502c-8.953,0-13.146-1.623-18.001-3.502c-5.466-2.116-11.661-4.514-23.416-4.514
	c-11.755,0-17.95,2.398-23.416,4.514c-4.854,1.879-9.047,3.502-18,3.502c-3.952,0-6.975-0.317-9.539-0.832l3.129-2.235
	c5.053-3.609,8.245-9.228,8.757-15.416c0.228-2.754-0.089-5.483-0.895-8.052c80.985-2.007,151.644-9.578,210.051-22.52
	c4.044-0.896,6.596-4.9,5.7-8.945c-0.896-4.044-4.904-6.594-8.945-5.7c-54.448,12.063-119.868,19.39-194.651,21.813l17.705-17.705
	c103.679-4.419,187.596-18.409,250.145-41.746c-0.727,4.779-1.944,10.795-3.97,17.521c-11.651,4.386-24.264,8.493-37.564,12.217
	c-3.989,1.117-6.317,5.255-5.2,9.244c0.927,3.313,3.939,5.48,7.218,5.48c0.669,0,1.35-0.09,2.026-0.28
	c9.104-2.549,17.908-5.275,26.327-8.147c-12.696,26.359-33.5,45.611-61.937,57.3c-0.415-0.006-0.823-0.016-1.253-0.016
	C409.801,296.366,403.604,298.764,398.135,300.879z"/>
<path d="M421.562,328.43c-11.76,0-17.958,2.398-23.426,4.513c-4.858,1.88-9.054,3.503-18.014,3.503
	c-8.95,0-13.142-1.623-17.995-3.502c-5.464-2.116-11.658-4.514-23.41-4.514c-11.758,0-17.954,2.398-23.421,4.514
	c-4.856,1.879-9.05,3.502-18.006,3.502c-8.954,0-13.146-1.623-18.001-3.502c-5.466-2.116-11.661-4.514-23.416-4.514
	c-11.755,0-17.95,2.398-23.416,4.514c-4.854,1.879-9.047,3.502-18,3.502s-13.146-1.623-18-3.502
	c-5.466-2.116-11.661-4.514-23.416-4.514c-11.751,0-17.943,2.398-23.407,4.514c-4.852,1.879-9.042,3.502-17.991,3.502
	c-8.942,0-13.13-1.623-17.979-3.501c-5.461-2.116-11.652-4.515-23.398-4.515c-4.142,0-7.5,3.358-7.5,7.5s3.358,7.5,7.5,7.5
	c8.942,0,13.13,1.623,17.979,3.501c5.461,2.116,11.651,4.515,23.398,4.515c11.751,0,17.944-2.398,23.408-4.514
	c4.852-1.879,9.042-3.502,17.99-3.502c8.953,0,13.146,1.623,18,3.502c5.466,2.116,11.661,4.514,23.416,4.514
	s17.95-2.398,23.415-4.514c4.855-1.879,9.047-3.502,18-3.502s13.146,1.623,18.001,3.502c5.466,2.116,11.661,4.514,23.416,4.514
	c11.757,0,17.954-2.398,23.42-4.514c4.856-1.879,9.05-3.502,18.007-3.502c8.95,0,13.141,1.623,17.994,3.502
	c5.464,2.116,11.658,4.514,23.411,4.514c11.76,0,17.958-2.398,23.426-4.513c4.858-1.88,9.054-3.503,18.014-3.503
	c4.142,0,7.5-3.358,7.5-7.5S425.704,328.43,421.562,328.43z"/>
<g>
</g>
<g>
</g>
<g>
</g>
<g>
</g>
<g>
</g>
<g>
</g>
<g>
</g>
<g>
</g>
<g>
</g>
<g>
</g>
<g>
</g>
<g>
</g>
<g>
</g>
<g>
</g>
<g>
</g>
</svg>
